<?xml version="1.0" encoding="utf-8"?>
<svg width="800" height="800" version="1.2" viewBox="0 0 800 800" baseProfile="tiny-ps" xmlns="http://www.w3.org/2000/svg">
  <title>GSS Projetos Estruturais</title>
  <g transform="translate(.334 .806)">
    <path d="m354 799c-2.75-0.481-13.1-2.29-23-4.02-61.5-10.7-120-36.1-173-75.4l-19-14-20.1-20.2c-64.2-64.4-104-143-116-231l-3.12-22.6 0.0733-64.9 2.93-20.6c6.28-44.2 17.7-81.6 37-122l11.7-24.2 15.9-23.8c63.6-95.2 166-159 279-174l22.6-2.98h62.5l22.6 2.98c113 14.9 215 78.5 279 174l15.9 23.8 11.7 24.2c19.3 39.9 30.7 77.4 37 122l2.93 20.6v66l-2.93 20.6c-6.28 44.2-17.7 81.7-36.9 121-20.2 41.6-44.6 75.7-79 110l-20.1 20.2-19 14c-52.3 38.6-103 60.9-169 75l-20.2 4.3-47 0.531c-25.8 0.292-49.2 0.138-52-0.343z" fill="#eee2ce" />
    <path d="m345 797c-25-3.82-50-10.1-76.6-19.2l-22.6-7.76-24.4-12.2c-64.9-32.5-114-76.2-155-137l-12.6-18.8-27.2-56.4-6.1-19c-8.29-25.8-13.9-50.3-17.3-75.7l-2.83-21.3v-58l2.83-21.3c11.5-86.5 51.4-169 111-229 65.4-66.2 147-107 237-118l24.9-3.08h50.2l24.9 3.08c119 14.7 227 84.2 290 187 39.1 63.5 59.5 136 59.5 212v26l-2.98 22.6c-12 90.7-53.6 173-120 238-57.9 56.6-139 95.8-223 108l-21.3 3.12-69.5-0.387zm-198-281c22.7-10.6 67.3-27.1 92.3-34.1l16.5-4.63v-25.6l-14 2.27v-158h-26v164l-9.36 3.19c-5.15 1.75-10.1 3.19-11 3.19h-1.64v-170h-24v180l-10.5 4.85c-5.78 2.67-11.2 4.47-12 4.01l-1.5-0.833v-188h-24v206l-12 6.21v27.9l8.5-5.38c4.68-2.96 17.6-9.64 28.7-14.9zm281-107c6.69-1.73 15.6-4.9 19.8-7.04l7.62-3.89v-69.9h-54v24h28v31.7l-22.2 4.6-8.41-1.4c-4.63-0.771-12.7-3.56-17.9-6.2l-9.52-4.8-5.99-8.27c-3.29-4.55-6.98-12-8.2-16.5l-2.22-8.19 2.07-23 5.15-8.79c6.43-11 14.5-17.8 26.1-22.3l9.03-3.45 21.1 1.88 8 3.71c4.4 2.04 8.57 4.02 9.26 4.4 0.696 0.382 4.58-3.83 8.64-9.36l7.38-10-1.12-1.82c-0.618-1-7.21-4.33-14.6-7.39l-13.5-5.58-42-0.272-25.2 11.6-18.4 20.4-10.3 22 0.0506 44 4.34 9.44c8.31 18.1 27.3 34.5 47.1 40.7l8.43 2.63 29.4 0.268zm134-0.921 10.9-4.07 15.8-17.1 4.77-19.9-2.18-9.71c-4.19-18.7-11.5-24.8-42.7-35.3l-19.7-6.64-4.84-5.75c-5.99-7.12-6.05-9.84-0.34-16.4l4.5-5.15 6-1.66c3.3-0.914 10.3-1.37 15.5-1.02l9.51 0.647 10 4.32c5.53 2.38 10.3 3.98 10.7 3.55 0.338-0.425 2.21-4.82 4.16-9.77s3.94-9.99 4.43-11.2l0.883-2.21-21.2-9.58h-46l-17.6 10-12.2 15.2-1.57 27.8 5.01 12.1 16.1 13.8 40.4 12.8 11 10.9v4.29c0 6.54-3.48 11.6-10.4 15.2l-6.24 3.22-28.4-1.44-11.6-5.69c-6.39-3.13-11.9-5.37-12.3-4.98-0.904 0.905-9.04 21.5-9.04 22.9 0 1.68 16.6 8.51 28.2 11.7l10.8 2.9 26.8 0.263zm128 0.0787 10.7-4 6.17-6.5c3.4-3.58 7.72-9.56 9.6-13.3l3.43-6.79-1.47-29.2-4.15-5.6c-6.51-8.78-15.6-13.9-36.5-20.7l-19.3-6.25-9-8.36v-10.9l7.57-9.34 29.9-1.51 19.2 8.5 1.52-1.54c0.835-0.85 3.37-5.87 5.63-11.2l4.11-9.62-8.88-3.93c-4.88-2.16-14.1-4.9-20.5-6.09l-11.6-2.16-25.4 2.58-19.5 9.9-10.8 16.3-1.68 23.2 4.74 14.4 16.3 13.9 43.4 14.5 4.02 5.11c7 8.89 4.46 18.1-6.54 23.9l-6.44 3.36-24.4-0.178-13.5-6.43c-7.41-3.54-13.7-6.13-14.1-5.75-1.13 1.3-9.1 20.2-9.1 21.6 0 1.91 12.9 8.01 26 12.3l11 3.6 28.8 0.215zm-437-132c4.9-2.62 10.5-9.93 10.5-13.7v-2.55h-164v3.62c0 5.05 7.06 12.1 13.6 13.5 2.99 0.66 6.34 1.54 7.44 1.95 1.1 0.412 30.4 0.458 65.1 0.103l63.1-0.647zm32.5-46.3v-12h-206v24h206z" fill="#a2a29c" />
    <path d="m357 798c-24.5-2.56-53.2-9.15-84-19.3l-28-9.24-24-12.2c-44.7-22.7-75.1-45-108-79.1-58.7-61.2-93.8-131-109-217l-3.43-20v-82l3.42-20c7.44-43.5 18.4-77.4 37.3-116 39.8-81 105-145 188-185 44.3-21.1 87.9-32.5 142-36.9l28.8-2.38 28.8 2.38c53.7 4.44 97.2 15.8 142 36.9 82.6 39.4 148 104 188 185 19 38.7 30 72.8 37.3 116l3.39 20 0.0744 82-3.43 20c-11.6 67.8-35.5 124-75.3 178-37 50-83.6 89-141 118l-24 12.2-28 9.23c-32.9 10.9-58.1 16.5-86.7 19.4-23.6 2.41-59.7 2.37-83.3-0.0865zm-233-269c18.4-11 60.3-28.5 94.4-39.4 17-5.47 33.1-10.7 35.6-11.7l4.6-1.8-1.19-25-15 1.31v-156h-26v163l-9.89 3.16c-5.44 1.74-10.4 2.66-11 2.05-0.612-0.612-1.11-38.8-1.11-84.9v-83.8l-25 1.19-1.04 179-9.23 4.08c-5.08 2.25-9.57 4.08-9.98 4.08s-0.746-42.3-0.746-94v-94h-26v204l-14 8.26v27.6h1.86c1.02 0 7.2-3.18 13.7-7.07zm309-120c5.97-1.77 14.2-4.94 18.4-7.04l7.5-3.82v-71.9h-56v26h28v29.8l-2.21 1.37c-1.21 0.751-7.95 1.83-15 2.39l-12.8 1.02-18.1-5.07-17.5-15.4-7.03-17.1 0.081-12 0.0811-12 2.31-6c1.27-3.3 4.55-9.25 7.28-13.2l4.97-7.23 20.8-11.3 24.1 0.0954 10.6 4.6c5.81 2.53 10.8 4.25 11.1 3.83 0.304-0.425 3.58-4.7 7.29-9.5l6.73-8.73-4.07-6.55-23.6-9.73-40-1.64-23 8.66-19 15.1-12.9 21.6-6.63 26 1.16 12c1.58 16.4 5.97 28.2 14.9 39.8l7.48 9.83 9.73 6.67c5.35 3.67 13.9 7.96 19 9.53l9.27 2.86 36.3 0.279zm131-0.0917 9.72-3.31 16.4-16.4 2.46-8.23c1.35-4.53 2.46-11.8 2.46-16.3v-8.02l-5.77-13.8-15.7-14.2-44.1-14.7-6.46-7.14v-10.7l3.95-3.95c5.31-5.31 12.2-6.78 25.9-5.53l11.5 1.04 16.8 8.59 4.92-10.6c2.71-5.81 4.93-11.7 4.94-13.2l0.0195-2.61-8.59-3.8c-4.73-2.09-15-4.85-22.8-6.14l-14.2-2.34-25.3 4.46-18.1 11.2-9 16.3-2.41 17.6 4.62 17.2 15.3 15.3 45 15 7.73 7.73-1.23 14.4-11.3 8.4-28.7-0.235-12-5.79c-6.6-3.18-12.5-6.08-13.1-6.43-0.63-0.354-3.46 5.19-6.29 12.3l-5.15 13 8.92 4.32c4.9 2.37 13.1 5.48 18.3 6.9l9.37 2.58 32.3 0.358zm128 0 9.72-3.31 16.5-16.5 5.31-19-1.17-9.85c-0.641-5.42-2.61-12.6-4.38-16.1l-3.22-6.22-17-10.8-37.1-11.9-9.65-8.95v-9.49l10.3-9.7 28.7 0.145 19.2 8.74 4.86-10.4c2.67-5.74 4.87-11.5 4.88-12.7l0.0195-2.25-21-9.39-46-0.102-7 3.73c-9.17 4.89-17.6 12.8-21.5 20.3l-3.16 6-0.185 24 7.54 15.5 14.9 10.8 40.8 13.1 7.89 7.89-1.23 14.4-11.3 8.4-28.7-0.0888-12-5.86c-6.6-3.22-12.5-6.15-13.2-6.51-0.633-0.355-3.47 4.74-6.31 11.3l-5.16 12 2.31 1.84c4.56 3.62 16.5 9.03 25.3 11.5l9 2.5 32.3 0.358zm-437-132 5.87-3.03 3.03-5.87c1.67-3.23 3.03-6.81 3.03-7.97v-2.1h-168l1.37 5.5c1.61 6.46 6.44 12.3 12.1 14.6l4 1.64 133 0.254zm31.9-46v-13h-208v23.8l11.5 0.722c6.32 0.397 53.1 0.892 104 1.1l92.5 0.378z" fill="#5f625f" />
    <path d="m366 798c-99.9-8.51-200-58.8-264-133-8.87-10.2-21.9-26.6-28.9-36.4l-12.8-17.8-14.1-27.3c-27.3-53-41-103-45-165l-1.31-20 2.17-27c4.62-57.5 17.2-103 42.6-153 40.8-80.3 101-139 183-179l26-12.6 48.9-16 21.9-3.94c12-2.17 33.4-4.95 47.5-6.18l25.6-2.24 20 1.3c62 4.01 110 16.7 162 42.4 65.4 32.7 121 83.1 158 142 31.5 50.9 49.4 99 58.7 158l3.49 22v70l-3.49 22c-7.52 47.4-19 82.9-40.5 125l-12.8 25.4-14.7 20.6c-30.6 43.1-63.8 75.8-104 103-64.7 42.9-134 65.3-210 67.8l-28 0.934zm-250-264c17.1-12.1 78.3-37.6 117-48.9l24-6.95 1.19-29-16.2 2.59v-158h-26v164l-5.09 1.93c-2.8 1.06-7.29 2.49-9.98 3.16l-4.89 1.23-1.04-169h-26l-1.13 180-19.9 8.75v-190l-27 1.18-1.05 206-11.9 6.81v15.1c0 8.3 0.536 15.1 1.19 15.1s3.58-1.69 6.5-3.75zm321-126c6.26-2.09 13.7-5.32 16.5-7.16l5.12-3.35v-71.9h-58v26h28v29.8l-1.73 1.07c-0.951 0.588-6.65 1.65-12.7 2.35l-10.9 1.29-23-6.69-17.1-17.6-2.26-8.97c-2.89-11.5-2.86-21 0.0913-32.8l2.35-9.33 18.8-18.8 17.5-4.73 22.3 2 16.3 8.32 17.2-22.3-4.89-3.76c-2.69-2.07-10.7-5.8-17.9-8.3l-13-4.54-36 0.155-22.8 9.04-9.92 8.92c-22.4 20.2-31.2 50.9-23.3 81.4 3.67 14.1 9.76 23.9 21.5 34.8 10.6 9.79 17.6 13.7 32 17.7l10.5 2.97 34-1.78zm128 0.614 9.15-3.18 16.2-16.9 2.26-6.8c1.24-3.74 2.24-11.4 2.22-17l-0.0439-10.2-7.48-16.5-14-10.7-41.9-14-9.02-9.6 2.55-10.2 10.8-7.05 24.2 0.445 10.9 4.23c5.98 2.33 11.2 3.88 11.6 3.46 0.422-0.422 2.92-6.03 5.56-12.5l4.79-11.7-3.41-2.57c-1.87-1.41-9.14-4.34-16.1-6.5l-12.7-3.93h-26.9l-20.8 6.17-14.6 12.8-7.28 16-0.0439 10.4c-0.101 23.9 12 35.8 47.1 46.3l14.2 4.25 10.6 8.37v4.69c0 7.39-2.05 10.9-8.14 14.1l-5.66 2.93-27.2-0.00316-12.8-6.05c-7.03-3.33-13.1-5.76-13.4-5.4-0.891 0.891-10.8 23.3-10.8 24.5 0 2.24 21.8 11.6 32.8 14.1l12.2 2.78 13-0.86c7.15-0.473 17.1-2.29 22.2-4.04zm126 0.9 7.64-2.2 16.3-14.7 7.29-16 0.0328-10c0.018-5.5-0.853-13.2-1.94-17.1l-1.97-7.09-13.8-13.4-46.9-16.5-8.06-10.9 4.65-10.2 11-4.35 22.7 0.196 10.2 4.39c5.61 2.41 10.5 4.04 11 3.61 0.415-0.425 3.05-5.98 5.86-12.3l5.11-11.6-6.4-3.89c-3.52-2.14-13.1-5.37-21.2-7.18l-14.8-3.29-24.5 2.53-22 11-11.8 17.1-1.61 25.2 4.02 7.84c7.14 13.9 17.6 20.7 44.1 28.7l14.7 4.41 9.57 9.57v10.4l-10 9.28-16.8 2.26-19.9-3.77-20.9-11.8-5.18 12.9c-2.85 7.12-5.18 13.4-5.18 13.9 0 2.27 21.7 11.6 32.8 14.2l12.2 2.78 13-0.896c7.15-0.493 16.4-1.89 20.6-3.1zm-433-135 5.96-5.5 2.58-11h-168l0.0709 3.5c0.11 5.41 4.87 12.8 10.1 15.7l4.78 2.65 139 0.142zm28.1-44.5v-14h-208v28h208z" fill="#225861" />
    <path d="m366 798c-99.9-8.51-200-58.8-264-133-8.87-10.2-21.9-26.6-28.9-36.4l-12.8-17.8-14.1-27.3c-27.3-53-41-103-45-165l-1.31-20 2.17-27c4.62-57.5 17.2-103 42.6-153 40.8-80.3 101-139 183-179l26-12.6 48.9-16 21.9-3.94c12-2.17 33.4-4.95 47.5-6.18l25.6-2.24 20 1.3c62 4.01 110 16.7 162 42.4 65.4 32.7 121 83.1 158 142 31.5 50.9 49.4 99 58.7 158l3.49 22v70l-3.49 22c-7.52 47.4-19 82.9-40.5 125l-12.8 25.4-14.7 20.6c-30.6 43.1-63.8 75.8-104 103-64.7 42.9-134 65.3-210 67.8l-28 0.934zm-162-221v-5h-20.3l1.27-11 14-1.33 1.39-2.24c2.34-3.78-0.233-5.43-8.47-5.43h-7.88v-12h20v-8h-30v50h30zm38.8 2.74 4.96-2.26 4.83-11.7-4.41-9.67-9.48-4.57c-5.21-2.52-9.82-5.69-10.2-7.05l-0.758-2.47 9.81-4.47 8.09 4.33 4.76-5.74-1.24-2.01c-0.683-1.11-4.46-2.61-8.39-3.35l-7.15-1.34-13.2 6.29-2.76 12.6 4.38 4.67c2.41 2.57 6.77 5.27 9.68 6 10.6 2.66 13.6 9.11 6.14 13.1l-4.18 2.24-11.9-4.91-4.78 4.86 9.44 7.72h5.68c3.13 0 7.92-1.02 10.6-2.26zm43.2-18.7v-21h14v-8h-38v8h14v42h10zm36 11v-10l5 0.0718 13 19.9h7.97v-2.04c0-1.12-2.37-5.63-5.28-10l-5.28-7.97 10.6-9.78v-11.9l-10.5-8.29h-25.5v50h10zm0-25.1v-7.13l12.6 1.25 4.17 6.66-5.26 6.34h-11.5zm76.2 29.3 5.85-5.85v-38.3h-10v35.2l-2.4 2.4c-2.86 2.86-11.4 3.1-15.6 0.444l-3-1.9-1.4-36.1h-9.6v31.7l2.1 5.63c1.16 3.1 4.08 7.19 6.5 9.09l4.4 3.46 17.3 0.089zm43.4-15.7 0.57-20.5h13.9v-8h-38v8h14v42.3l9-1.28zm61.8 16.7 5.61-4.82 1.37-40.4h-10.4v32.3l-4.14 7.74h-13.7l-4.14-7.74v-32.3h-10.4l1.37 40.4 11.2 9.65h17.6zm34.2-5.68 0.61-9.5h1.91c1.05 0 4.68 4.5 8.06 10l6.15 10h4.83c2.66 0 4.83-0.419 4.83-0.931s-2.67-5.13-5.92-10.3l-5.92-9.34 9.85-7.75v-13.7l-8-8h-26v50.3l9-1.28zm0.0122-24.5-0.841-7.21 14.2 1.19v12l-12.5 1.22zm50.7 29 2.09-6h21.2l4.18 12h10l-7.13-19.5c-3.92-10.7-8.04-22-9.15-25.1l-2.02-5.61-12.5 1.22-8.41 23c-4.62 12.6-8.45 23.7-8.51 24.5s1.74 1.5 4 1.5h4.1zm6.81-18.5c0.76-2.48 2.46-7.2 3.78-10.5l2.4-5.99 3.36 9.85c1.85 5.42 3.36 10.1 3.36 10.5 0 0.354-3.21 0.644-7.13 0.644h-7.13zm54.4-1 0.562-24.5h-10.1v50.3l9-1.28zm42.5 22.5 5.87-3.04 1.25-4.96c0.685-2.73 0.71-7.1 0.0556-9.71l-1.19-4.74-9.91-4.26c-11.2-4.83-12.6-6.25-10.1-10.3l1.8-2.9h17.1v-6l-14.7-3.62-12 4.97-4.93 11.9 7.83 10.5 5.88 1.89c11.4 3.69 14.3 9.4 6.7 13.5l-4.18 2.24-11.9-4.91-4.78 4.86 9.44 7.72h5.88c3.23 0 8.52-1.37 11.7-3.04zm-576-44.7c17.1-12.1 78.3-37.6 117-48.9l24-6.95 1.19-29-16.2 2.59v-158h-26v164l-5.09 1.93c-2.8 1.06-7.29 2.49-9.98 3.16l-4.89 1.23-1.04-169h-26l-1.13 180-19.9 8.75v-190l-27 1.18-1.05 206-11.9 6.81v15.1c0 8.3 0.536 15.1 1.19 15.1s3.58-1.69 6.5-3.75zm347-34.8 6.8-4.54 7.13-13.9-1.21-6.79c-1.6-8.94-6.22-15.7-13.1-19.3l-5.6-2.9h-14.4l-11.7 6.07-6.07 11.7 0.014 15.2 8.06 13.2 6.46 2.81c3.55 1.54 8.8 2.84 11.7 2.89l5.21 0.0783zm-23.3-10.4-4.91-4.91v-5.93c0-8.74 1.81-12.1 8.45-15.5l5.96-3.08 5.87 2.43c6.88 2.85 9.72 7.37 9.72 15.5v5.86l-8.29 10.5h-11.9zm72.4 8.64 4.71-4.43v-41.3h-10v37.2l-2.4 2.4c-3.1 3.1-8.6 3.06-13.7-0.1l-4.03-2.5-1.91 3c-2.88 4.53-2.45 5.6 3.53 8.95l5.5 3.08 13.6-1.88zm140 2.93 7.04-3.34 7.75-12.3-1.71-19.8-14.5-13.2h-19.5l-5.31 4.18c-11.1 8.76-14 21.7-7.58 33.7l3.65 6.81 6.81 3.65c8.45 4.53 14.3 4.61 23.3 0.315zm-19.8-8.74c-1.84-1.08-4.38-5.07-5.64-8.88l-2.29-6.93 5.27-11 11-6.15 5.45 3.05c3 1.68 6.74 5.34 8.31 8.14l2.86 5.09-1.33 5.31c-0.732 2.92-3.29 7.13-5.68 9.36l-4.35 4.06-5.12-0.0608c-2.82-0.0335-6.63-0.94-8.47-2.02zm74 4.84 4.61-5.24-1.22-12.5-9-4.42c-4.95-2.43-10.2-5.43-11.6-6.67l-2.6-2.25 5.01-6.04 14.8 2.36 2.27-5.92-3.79-2.03c-2.09-1.12-6.8-2.03-10.5-2.03h-6.69l-8.89 6.23v15.3l2.71 2.25c1.49 1.24 6.22 3.46 10.5 4.95l7.79 2.7v9.6l-10.8 1.25-8.71-4.66-1.72 2.71c-2.81 4.43-2.1 5.75 4.72 8.8l6.5 2.9 12-2zm-364-2.74v-7.98l8.12-1.3c4.46-0.714 9.95-2.78 12.2-4.59l4.07-3.29 0.436-15.4-11-9.49h-23.8v50h10zm0-25.2v-7.13l13 1.25 1.35 9.55-2.67 1.7c-1.47 0.933-4.7 1.71-7.17 1.73l-4.5 0.0306zm44 24.1v-9h6.1l10.9 18h11l-11.7-18.8 9.7-8.99v-13.6l-8.42-7.62h-26.6l-1.12 49h10.1zm0-23.9v-7.13h14.1l2.51 6.54-4.04 6.46-12.6 1.25zm174 28.9v-4h-20v-12h16v-8h-16v-12h18v-10h-28v50h30zm34-16v-20h3.84c2.11 0 5.26-0.546 7-1.21l3.16-1.21v-7.57h-38v10h14v40h10zm-158-73.6c6.26-2.09 13.7-5.32 16.5-7.16l5.12-3.35v-71.9h-58v26h28v29.8l-1.73 1.07c-0.951 0.588-6.65 1.65-12.7 2.35l-10.9 1.29-23-6.69-17.1-17.6-2.26-8.97c-2.89-11.5-2.86-21 0.0913-32.8l2.35-9.33 18.8-18.8 17.5-4.73 22.3 2 16.3 8.32 17.2-22.3-4.89-3.76c-2.69-2.07-10.7-5.8-17.9-8.3l-13-4.54-36 0.155-22.8 9.04-9.92 8.92c-22.4 20.2-31.2 50.9-23.3 81.4 3.67 14.1 9.76 23.9 21.5 34.8 10.6 9.79 17.6 13.7 32 17.7l10.5 2.97 34-1.78zm128 0.614 9.15-3.18 16.2-16.9 2.26-6.8c1.24-3.74 2.24-11.4 2.22-17l-0.0439-10.2-7.48-16.5-14-10.7-41.9-14-9.02-9.6 2.55-10.2 10.8-7.05 24.2 0.445 10.9 4.23c5.98 2.33 11.2 3.88 11.6 3.46 0.422-0.422 2.92-6.03 5.56-12.5l4.79-11.7-3.41-2.57c-1.87-1.41-9.14-4.34-16.1-6.5l-12.7-3.93h-26.9l-20.8 6.17-14.6 12.8-7.28 16-0.0439 10.4c-0.101 23.9 12 35.8 47.1 46.3l14.2 4.25 10.6 8.37v4.69c0 7.39-2.05 10.9-8.14 14.1l-5.66 2.93-27.2-0.00316-12.8-6.05c-7.03-3.33-13.1-5.76-13.4-5.4-0.891 0.891-10.8 23.3-10.8 24.5 0 2.24 21.8 11.6 32.8 14.1l12.2 2.78 13-0.86c7.15-0.473 17.1-2.29 22.2-4.04zm126 0.9 7.64-2.2 16.3-14.7 7.29-16 0.0328-10c0.018-5.5-0.853-13.2-1.94-17.1l-1.97-7.09-13.8-13.4-46.9-16.5-8.06-10.9 4.65-10.2 11-4.35 22.7 0.196 10.2 4.39c5.61 2.41 10.5 4.04 11 3.61 0.415-0.425 3.05-5.98 5.86-12.3l5.11-11.6-6.4-3.89c-3.52-2.14-13.1-5.37-21.2-7.18l-14.8-3.29-24.5 2.53-22 11-11.8 17.1-1.61 25.2 4.02 7.84c7.14 13.9 17.6 20.7 44.1 28.7l14.7 4.41 9.57 9.57v10.4l-10 9.28-16.8 2.26-19.9-3.77-20.9-11.8-5.18 12.9c-2.85 7.12-5.18 13.4-5.18 13.9 0 2.27 21.7 11.6 32.8 14.2l12.2 2.78 13-0.896c7.15-0.493 16.4-1.89 20.6-3.1zm-433-135 5.96-5.5 2.58-11h-168l0.0709 3.5c0.11 5.41 4.87 12.8 10.1 15.7l4.78 2.65 139 0.142zm28.1-44.5v-14h-208v28h208z" fill="#2c322f" />
    <path d="m371 798-24-1.45-22-4.45c-12.1-2.44-34.2-8.42-49-13.3l-27-8.82-24-11.8c-80.8-39.6-144-102-183-183l-11.7-24-8.15-24.5c-4.48-13.5-10.4-35.3-13.1-48.5l-4.96-24-3.3-53.9 3.3-53.8 10.4-50.4 8.01-23.4c20.3-59.2 54-113 96.5-155 62.3-61.3 140-100 225-112l22.9-3.23h66l22.9 3.23c45.9 6.48 88.1 20.2 130 42.1 75.9 40 135 101 173 178l11.7 24 8.2 24.5c4.51 13.5 10.4 35.3 13.2 48.5l4.96 24 3.3 53.9-3.27 53-10.4 51.2-8.03 23.4c-10.1 29.4-27.8 66.1-43.2 89.4-41.4 62.8-93.6 109-160 141l-24 11.7-24.8 8.23c-51.8 17.2-98.9 23.2-155 19.8zm-167-221v-5h-20v-10h5.84c3.21 0 7.26-0.546 9-1.21l3.16-1.21v-7.57h-18v-12h20.3l-1.28-9h-28l-0.56 25.5-0.56 25.5h30.1zm42.7 0.0955 5.29-4.9v-11.6l-3.57-3.23c-1.97-1.78-6.85-4.6-10.9-6.28-4.01-1.68-7.81-3.89-8.45-4.92l-1.16-1.87 6.46-6.46 4.29 1.34c2.36 0.738 5.3 1.72 6.53 2.18l2.24 0.84 2.73-7.12-6.98-5.11h-15.4l-9.82 9.82v4.71c0 6.81 3.74 10.8 14.5 15.3l9.5 4.02v6l-8.15 4.36-11.5-5.75-2.16 2.16c-5.53 5.53 1.31 11 14 11.2l7.21 0.135zm39.3-16.1v-21h14v-10h-38v10h14v42h10zm36 11v-10h5.16l11.7 20h11.4l-1.48-2.5c-0.812-1.38-3.62-5.95-6.24-10.2l-4.76-7.66 10.2-9.5v-12l-8.51-7.93-10.7-1.34c-5.89-0.736-12.1-0.815-13.7-0.175l-3.03 1.16v50.1h10zm0-25.1v-7.13l12.6 1.25 4.17 6.66-5.26 6.34h-11.5zm76.2 29.2 5.92-5.92-0.573-19.6-0.573-19.6h-8l-1.17 35.8-4.32 5.21h-11.4l-6.38-9.73 0.365-13.6c0.201-7.5 0.265-14.8 0.142-16.3l-0.222-2.64-9 1.28v41.4l11.2 9.64h18.1zm43.8-15.1v-21h14.3l-1.28-9-37-1.15v9.9l13 1.25 0.57 20.5 0.57 20.5h9.86zm61.4 16.2 5.61-4.82v-41.4h-8l-1 18c-0.55 9.9-1.73 19.1-2.62 20.5l-1.62 2.5h-13.5l-1.62-2.5c-0.89-1.38-2.07-10.6-2.62-20.5l-1-18h-8v41.4l11.2 9.64h17.6zm34.6-5.18v-10h1.83c1.01 0 4.6 4.5 7.98 10l6.15 10h5.02c2.76 0 5.02-0.453 5.02-1.01 0-0.553-2.62-5.21-5.82-10.4l-5.82-9.35 9.64-7.58v-15.6l-10.7-7.03-22.3-0.0669-0.56 25.5-0.56 25.5h10.1zm0-24.9v-7.13l4.5 0.0306c2.48 0.0168 5.7 0.794 7.17 1.73l2.67 1.7-1.35 9.55-13 1.25zm50.6 28.9 2.26-6h20.2l4.53 12h10.3l-7.11-19.5c-3.91-10.7-8.02-21.9-9.14-24.9l-2.03-5.42-8.11-2.57-2.9 2.9c-2.58 2.58-18.7 43.9-18.7 47.9 0 0.883 1.88 1.61 4.17 1.61h4.17zm9.03-24.2 3.28-10.2 2.29 5.74c1.26 3.16 2.92 7.77 3.68 10.2l1.38 4.5h-13.9zm51.9 4.74-0.56-25.5h-10l-0.499 23c-0.275 12.6-0.0779 24.1 0.437 25.5l0.937 2.5h10.2zm45.5 20.6 4.91-4.91v-5.22c0-2.87-0.893-6.89-1.98-8.93l-1.98-3.71-7.52-2.42c-4.13-1.33-8.59-3.27-9.9-4.31l-2.38-1.89 1.07-2.78c0.586-1.53 2.66-3.28 4.62-3.9l3.55-1.13 10.2 3.87 2.56-6.67-6.98-5.11h-14.7l-10.6 9.81v9.49l4.5 4.09c2.48 2.25 7.14 4.94 10.4 5.97 3.22 1.03 6.82 3.45 8 5.37l2.14 3.5-7.79 5.78-4.1-1.36c-2.26-0.746-5.88-1.42-8.04-1.51l-3.94-0.154-1.29 6.32 4.58 2.21c2.52 1.21 8 2.27 12.2 2.34l7.59 0.135zm-571-46.9c12.7-7.21 33.4-16.8 56-26.1 21.7-8.85 68.9-24.1 74.6-24.1h3.38v-30.5l-14 2.26-1.05-157h-28l-2 164-17 4.92v-170h-28v180l-7.92 4.04c-4.36 2.22-8.41 4.04-9 4.04-0.594 0-1.08-40.9-1.08-90.8 0-50-0.546-92.3-1.21-94l-1.21-3.16h-27.6v207l-12 4.53v16.2c0 8.9 0.478 16.2 1.06 16.2 0.584 0 7.29-3.53 14.9-7.85zm337-29.5 7.07-3.36 7.83-17.7-2.71-14.4-13.9-13.2h-17.9l-5.6 2.9c-3.08 1.59-7.09 5.16-8.9 7.93l-3.3 5.03v19.3l3.23 4.62c1.78 2.54 6.05 6.34 9.5 8.44l6.27 3.82 5.7 7e-3c3.13 4e-3 8.88-1.5 12.8-3.35zm-22.6-11.6-4.91-4.91v-13.8l6.15-5.18c7.15-6.02 8.14-6.16 15.7-2.25 6.34 3.28 8.14 6.67 8.14 15.3v5.93l-9.82 9.82h-10.4zm68.9 12c7.54-3.9 8.14-6.08 8.14-29.2v-19.8h-10v37.2l-2.4 2.4c-1.32 1.32-4.36 2.4-6.76 2.4h-4.36l-5.28-6.36-2.61 3.56c-3.69 5.05-3.32 6.28 2.89 9.65 7.05 3.82 13.3 3.89 20.4 0.218zm143 0.0464 6.89-2.88 8.07-13.2 7e-3 -7.69 7e-3 -7.69-3.27-5.54c-1.8-3.05-5.76-7.01-8.81-8.81l-5.54-3.27h-16.8l-11.6 6.82-3.03 6.39c-3.98 8.39-3.83 16.2 0.471 24.6l3.5 6.83 6.97 3.67c8.4 4.42 13.9 4.61 23.1 0.79zm-20.6-11.2-4.38-4.08-0.23-4.42c-0.446-8.55 0.582-12.5 4.28-16.3l3.73-3.83h12.9l9.37 10.9v4.02c0 9.14-7.7 17.6-16.1 17.7l-5.12 0.0636zm68.8 12c3.01-1.14 6.64-3.62 8.07-5.5l2.6-3.42 0.127-12.4-3.5-3.06c-1.92-1.68-6.93-4.16-11.1-5.5l-7.61-2.45 1.23-8.61h17.6l1.85-5.46-2.74-1.74c-1.51-0.956-6.47-1.75-11-1.77l-8.28-0.0306-4.05 3.5c-2.23 1.92-4.56 5.3-5.18 7.5l-1.13 4 4.99 9.91 17.9 6.62v9.46l-9.6 1.36-9.66-5.17-1.84 2.91c-2.81 4.44-2.35 5.53 3.6 8.76 6.61 3.59 10.5 3.82 17.7 1.07zm-357-7.67v-7.74l15.5-2.48 8.47-7.03 2.48-12.8-12.2-12.2h-23.9l-1.03 2.69c-0.567 1.48-1.13 12.7-1.24 25l-0.212 22.3h12.1zm0-25.4v-7.13l13 1.25 1.35 9.55-2.67 1.7c-1.47 0.933-4.7 1.71-7.17 1.73l-4.5 0.0306zm44 24.1v-9h5.83l10.5 18h11.6l-11.7-18.8 9.7-8.99v-13.6l-8.29-7.51-27.7-1.57v50.5h10zm1.43-18.2c-0.784-0.784-1.43-3.98-1.43-7.09v-5.67h14.1l2.51 6.54-4.04 6.46-4.87 0.592c-2.68 0.326-5.51-0.0495-6.3-0.833zm173 23.2v-4h-20v-12h16v-8h-16v-12h18v-10h-28v50h30zm34-15.9v-19.9l13-1.25 1.28-9h-38.3v10h14v40h10zm-166-71.1 14.2-2.99 15.8-9.02 0.0154-37.6 0.0154-37.6-57 1.11-1.18 27h28.2v29.6l-3.16 1.21c-1.74 0.668-9.42 1.21-17.1 1.21h-13.9l-7.44-3.1c-4.09-1.7-10.8-6.41-15-10.5l-7.56-7.37-2.94-9.9c-3.7-12.5-3.71-19.9-5e-3 -32.3l2.93-9.86 7.42-7.63c4.08-4.2 10.2-9.1 13.6-10.9l6.14-3.25 28.1-0.119 8.53 4.44c4.69 2.44 9.25 4.44 10.1 4.44s5.09-5.06 9.35-11.2l7.75-11.2-4.5-3.64c-2.47-2-9.63-5.59-15.9-7.98l-11.4-4.34-34.4-2.07-10.8 3.49c-22.2 7.17-37.1 20.6-47.4 42.5l-5.39 11.5 0.0444 46 5.55 10.6c10.2 19.5 27.7 33.9 47.4 39.2l11 2.95 24.7 0.263zm131-0.0231 11.6-3.01 6.82-5.2c8.7-6.64 14.1-15.4 16.8-27.3l2.1-9.37-4.51-21.1-16.5-16.4-10-3.55c-5.5-1.95-16.1-5.79-23.6-8.52l-13.6-4.97-6.38-9.74 4.52-9.92 5.15-1.96c2.84-1.08 9.62-1.96 15.1-1.96h9.93l12.2 4.1c6.69 2.25 12.4 3.83 12.7 3.5 2.17-2.47 11-22.1 11-24.4v-2.92l-10.8-4.06c-5.97-2.23-16.7-5.08-23.8-6.32l-13-2.26-11.4 2.36c-22.1 4.59-33.8 12.5-39.9 27.1l-3.09 7.4v23.7l3.79 7.42c2.08 4.08 5.49 8.96 7.57 10.8 5.06 4.57 22.8 12.3 38.1 16.6l12.5 3.5 10 9.29v7.97l-9.66 11.2h-33.5l-10.6-5.5c-5.83-3.02-11.5-5.5-12.5-5.5-2.22 0-11.7 19.5-11.7 24.2l-0.0195 3.16 9.76 4.57c11.8 5.54 29.7 9.63 43.3 9.91l10.1 0.205zm128 0.285 11.3-2.67 16-12.7 8.31-17.2v-27.1l-6.54-13.8-16.5-11.2-19.1-6.33c-10.5-3.48-21.1-7.71-23.5-9.41l-4.4-3.08 0.0306-5.39c0.0168-2.96 0.71-6.46 1.54-7.76 2.42-3.8 11.9-6.63 22.1-6.56l9.37 0.0653 11 3.87c6.05 2.13 11.5 3.9 12.1 3.93 0.623 0.0359 3.72-5.34 6.88-12l5.75-12-2.18-2.18c-1.2-1.2-7.45-3.99-13.9-6.2l-11.7-4.01-30.5-2.05-25.8 8.58-6.12 6.45c-3.37 3.55-7.57 9.33-9.35 12.9l-3.22 6.4v24.4l8.19 16 18.1 11.5 36.1 11.3 9.53 8.83v7.97l-9.66 11.2h-35.7l-10.5-6.5c-5.75-3.58-10.7-6.5-11-6.5-0.974 0-11.1 23.3-11.1 25.6 0 1.13 4.1 4.46 9.11 7.4l9.11 5.34 12.4 2.69c16.1 3.5 29.7 3.59 43.7 0.282zm-427-136 5.18-4.5 2.39-15h-169v12.3l11.7 11.7h144zm28.6-45-0.591-13.5-209-1.04v28h210z" fill="#192b2c" />
    <path d="m374 798c-27-1.31-40.4-3.39-70.3-10.9-158-39.7-275-170-299-332l-3.19-21.8v-66.8l3.21-21.8c15.1-103 66.7-193 147-257 55.4-44.2 117-71.2 188-82l26.8-4.11h66.7l26.8 4.11c70.3 10.8 132 37.8 188 82 80.4 64.1 132 154 147 257l3.17 21.6 9e-3 33.8 9e-3 33.8-3.18 21.7c-21.8 148-122 271-262 321-51.7 18.3-98.8 24.8-159 21.8zm-133-216c1.17-0.015 4.09-1.86 6.5-4.11l4.38-4.08v-15.2l-3.5-3.06c-1.92-1.68-6.92-4.16-11.1-5.5l-7.61-2.44 1.31-6.62h16.7l5.2-5.27-7.76-5.73h-7.75c-7.87 0-15.3 2.81-18 6.8-0.808 1.21-1.48 5.13-1.5 8.72l-0.0306 6.52 3.91 3.35c2.15 1.84 6.87 4.31 10.5 5.48l6.56 2.13 1.34 7.01-6.89 2.64-12.1-4.57-2.65 2.2c-1.46 1.21-2.65 3.35-2.65 4.74v2.54l15 6.32 4-0.919c2.2-0.506 4.96-0.932 6.12-0.947zm152-0.858 6.77-2.83 4.32-8.08v-40.3h-10v33.1l-6.23 8.89h-4.49c-2.47 0-5.57-1.08-6.89-2.4l-2.4-2.4v-37.2h-12v38.2l6.05 11.7 6.47 1.87c9.13 2.64 10.8 2.59 18.4-0.6zm110-2.07 4.71-3.09 4.33-16.1-1.17-28.9-13-1.25v37.5l-2.4 2.4c-1.32 1.32-4.29 2.4-6.6 2.4s-5.28-1.08-6.6-2.4l-2.4-2.4v-37.2h-11.6l-1.21 3.16c-0.668 1.74-1.21 9.42-1.21 17.1v13.9l5.85 14 13.1 5.9 6.71-0.926c3.69-0.509 8.83-2.31 11.4-4.01zm186 2.93c1.17-0.015 4.09-1.86 6.5-4.11l4.38-4.08v-15.2l-3.5-3.15c-1.92-1.73-5.94-3.76-8.92-4.51-2.98-0.744-6.43-2.57-7.67-4.07l-2.25-2.72 2.86-4.63 15.3 2.06 4.5-5.42-1.24-2.01c-0.684-1.11-4.44-2.9-8.34-3.97l-7.1-1.96-5.33 2.02c-2.93 1.11-6.9 3.45-8.83 5.2l-3.5 3.17v12.8l3.76 3.41c2.07 1.87 7.02 4.31 11 5.4l7.24 2v7.94l-6.59 2.53-12.3-4.64-5.6 5.6 1.48 2.39c0.812 1.31 4.29 3.64 7.74 5.16l6.26 2.78 4-0.945c2.2-0.52 4.96-0.958 6.12-0.973zm-483-5.03v-5h-20v-10h16v-10h-16l-6e-3 -11h17l1.27-11h-30.3v52h32zm82-14.9v-19.9l13-1.25 1.27-11h-42.5l1.27 11 15 1.24v39.8h12zm34.8 16.7c0.668-1.74 1.21-5.79 1.21-9 0-8.07 2.06-7.32 8.68 3.17l5.68 9h5.82c3.2 0 5.82-0.575 5.82-1.28s-2.66-5.6-5.92-10.9l-5.92-9.61 7.4-2.35 4.79-11.6-5.36-11.2-10-5.15-24 1.03-0.56 25.5-0.56 25.5h11.7zm1-25.3c-0.117-0.275-0.378-3.42-0.58-7l-0.368-6.5h3.42c1.88 0 4.84 0.546 6.58 1.21l3.16 1.21v9.14l-3.16 1.21c-3.17 1.22-8.65 1.65-9.05 0.714zm118 8.5v-20h14v-12h-40.3l1.27 11 13 1.25v39.7h12zm96 11v-9h2.05c1.13 0 4.5 4.05 7.49 9l5.44 9h13.2l-2.35-4.5c-1.29-2.48-4.05-6.92-6.11-9.87l-3.76-5.37 10.1-10.1v-3.96c0-2.18-0.836-6.16-1.86-8.85l-1.86-4.88-6.44-2.25c-3.54-1.23-11.3-2.25-17.1-2.25h-10.7v52h12zm0-26v-7h3.13c4.89 0 10.9 3.85 10.9 7s-5.97 7-10.9 7h-3.13zm52 29 1.16-5 19-1.22 4.26 12.2h5.8c3.19 0 5.79-0.675 5.77-1.5-0.0212-0.825-3.98-12.3-8.79-25.5l-8.76-24h-13.4l-5.8 15c-3.19 8.25-7.47 19.2-9.52 24.4-4.8 12.1-4.83 12 2.7 11.3l6.42-0.627zm6.03-15.5c0.0166-0.825 1.27-5.07 2.79-9.43l2.76-7.93 2.2 7.93c2.98 10.7 2.93 10.9-2.78 10.9-2.75 0-4.99-0.675-4.97-1.5zm54-4.5v-26h-12v52h12zm-528-24.5c9.73-5.8 26.9-14.1 50.6-24.6 17.1-7.53 43.6-16.5 71.5-24.2l13.5-3.71v-29.5l-14 1.63v-157l-29 1.18-2 164-17 4.92v-170h-27.6l-1.21 3.16c-0.668 1.74-1.22 42.5-1.23 90.5l-0.0156 87.3-5.48 2.65c-3.02 1.46-6.6 3.13-7.96 3.71l-2.48 1.05-1.04-187-29-1.18v206l-14 8.26v13.7c0 19.1 0.47 19.4 16.4 9.9zm220-36.5v-9h13.7l12.3-10.4v-13.8l-9.82-9.82h-28.2v52h12zm0-27v-6h11.7l1.26 3.98c0.695 2.19 0.703 4.89 0.0167 6l-1.25 2.02h-11.8zm46 25.8v-10.2l3.02 2.5c1.66 1.38 4.98 5.99 7.37 10.2l4.35 7.74h11.3v-2.54c0-1.39-2.38-6.04-5.29-10.3l-5.29-7.78 2.96-2.18c1.63-1.2 4.07-4.26 5.42-6.8l2.46-4.62-2.58-11.8-8.57-6h-27.1v52h12zm0-25.8v-6h9.51l4.98 6-4.98 6h-9.51zm75.4 32.1 6.4-3.9 6.64-12.8-2.01-17.8-7.82-10.5-15.5-5.2-15.9 2.68-10.9 10.9-2.89 15.4 5.6 16.1 13.6 9.13 16.4-0.014zm-25.4-13.5-4.3-5.47 2.32-12.1 8.43-7h9.74l9.82 9.82v9.64l-8.29 10.5h-13.4zm73.4 12.6 5.61-4.82 1.36-42.4h-12.4v13.8c0 7.56-0.562 16.6-1.25 20l-1.25 6.25h-5.35c-2.94 0-6.41-1.06-7.7-2.35l-2.35-2.35-7.82 7.08 0.982 2.56c1.46 3.81 8.8 6.78 17.1 6.93l7.39 0.135zm49.6-1.18v-5l-21-1.21v-7.79l6.5-0.0306c3.58-0.0168 7.71-0.8 9.2-1.74l2.7-1.71-1.43-7.52-17-1.23v-9.77h20v-10h-32v52.2l33-1.16zm33-14.9v-20.9l15-1.24 1.28-9h-42.3v10h14v42h12zm60.3 17.7 6.08-3.14 8.05-18.2-1.22-6.09c-0.67-3.35-3.48-9.06-6.25-12.7l-5.04-6.6-15.9-4.76-15.7 4.71-10.3 12.2v20.1l3.25 5.49c1.79 3.02 5.61 6.96 8.5 8.76l5.25 3.26 17.2 0.106zm-25-13.8c-1.78-2.71-3.23-7.09-3.23-9.73v-4.8l8.29-10.5h11l8.7 9.26v14.1l-7.31 6.62h-14.2zm76.1 12.2 5.51-4.74v-15l-4.62-3.74c-2.54-2.06-6.15-3.74-8.02-3.74-1.87 0-5.14-1.29-7.28-2.88l-3.88-2.88 6.85-6.95 11 5.01 2.58-3.53c3.9-5.33 3.27-6.4-5.24-8.95l-7.82-2.34-5.23 1.31c-2.88 0.722-7.01 3.09-9.18 5.26l-3.95 3.95v5.13c0 2.82 0.893 6.8 1.98 8.84l1.98 3.71 7.52 2.42c4.13 1.33 8.59 3.27 9.9 4.31l2.38 1.89-2.19 5.71h-12.8l-4.79-4.79-2.94 3.89c-4.08 5.39-3.84 6.35 2.43 9.75l5.5 2.98 14.8 0.16zm-275-88.4 13-3.06 17.1-10-1.09-72.8-59-1.11v28.1h28v29.5l-6.25 1.25c-9.27 1.85-23.8 1.5-32-0.785l-7.25-2.01-17.6-15.5-3.43-10.9c-4.3-13.7-4.3-19.4-3e-3 -33.1l3.43-10.9 19.1-17.2 19.9-4.77 10.2 2.18c5.6 1.2 12.8 3.53 16 5.18 3.19 1.65 6.55 3 7.47 3 2.33 0 16.5-19.3 16.5-22.5v-2.59l-8.5-4.43c-4.68-2.44-13.8-5.88-20.2-7.66l-11.7-3.22-32.6 1.68-22 8.63-20 17.6-14 27.5v48.1l4.99 9.78c14.5 28.5 38.6 42.7 73 43l14 0.141zm139-2.8 9.16-4.44 13.4-15.6 4.93-22-5.07-22.6-6.2-6.18c-7.55-7.52-14.5-11-38.7-19.3l-18.7-6.44-5.81-8.86 3.77-9.92 12.5-5.16 25.8 2.07 8.44 4.18c4.64 2.3 8.58 3.98 8.75 3.73 2.3-3.29 10.9-24 10.9-26.2v-2.98l-11.5-4.3c-6.32-2.37-16.4-5.22-22.5-6.34l-11-2.03-9.68 1.28c-5.32 0.706-14.4 3.05-20.1 5.2l-10.5 3.91-5.26 5.49c-2.89 3.02-6.66 8.84-8.37 12.9l-3.11 7.44v23.6l5.9 14.1 14.8 12.2 41.2 13.4 10.1 8.77v7.8l-9.66 11.2-33.3-0.344-11-5.82c-6.05-3.2-11.5-6.08-12.2-6.39-1.47-0.711-11.8 22-11.8 25.9v2.85l9.5 4.7c5.22 2.59 14.4 5.88 20.5 7.32l11 2.62 34.7-1.32zm126 1.34 7.32-3.07 8.26-8.26c4.54-4.54 9.12-10.5 10.2-13.3l1.92-5.05v-30.8l-4.93-7.26c-6.43-9.47-14-13.9-37.1-21.6-10.4-3.52-21-7.69-23.5-9.26l-4.5-2.86v-11.3l7.84-7.09 17.8-2.01 10.7 2.47c5.87 1.36 12.8 3.79 15.3 5.4s4.92 2.64 5.23 2.27c0.305-0.363 3.1-6.4 6.21-13.4l5.66-12.7-3.83-2.8c-2.11-1.54-9.8-4.58-17.1-6.75l-13.3-3.95h-28.4l-10.6 4.04c-13 4.98-20 10.9-25.6 22l-4.36 8.55v22.8l8.36 16.4 13.1 10 18.7 6.26c10.3 3.44 20.8 7.21 23.3 8.38l4.65 2.12 4.86 11.7-7.86 10.5-11.7 3.43-26.8-2.22-20.8-12.3-2.16 3.65c-3.62 6.11-8.93 19.5-9.05 22.7l-0.112 3.1 9.5 4.62c5.22 2.54 14.9 5.86 21.5 7.37l12 2.75 32-1.45zm-440-130c3.18-1.64 7.18-4.99 8.9-7.45l3.12-4.46v-11.2l-169 1.04 1.36 12 4.32 4.72c2.38 2.6 6.12 5.46 8.32 6.37l4 1.65 133 0.254zm34-49v-14h-210v28h210z" fill="#151c1a" />
  </g>
</svg>